<?xml version="1.0" encoding="utf-8"?>
<!-- Generator: Adobe Illustrator 27.4.0, SVG Export Plug-In . SVG Version: 6.00 Build 0)  -->
<svg version="1.1" id="Layer_1" xmlns="http://www.w3.org/2000/svg" xmlns:xlink="http://www.w3.org/1999/xlink" x="0px" y="0px"
	 viewBox="0 0 512 512" style="enable-background:new 0 0 512 512;" xml:space="preserve">
<style type="text/css">
	.st0{fill:#FF6666;}
</style>
<g>
	<path class="st0" d="M397.6,112.1c-1.9,28.8-7.2,56.9-17.4,84c-8.9,23.8-20.7,46-36.6,65.9c-12.6,15.7-27.6,28.8-45.1,38.8
		c-5.7,3.3-8.4,7.2-6.9,13.6c2.3,9.4-1.9,16.5-7.2,23.6c-17,22.3-37.2,41.1-60.6,56.4c-5.4,3.6-10.6,7.5-17.1,8.9
		c-3.7,0.8-4.6,0.3-4.5-3.5c0.3-6,2.3-11.7,3.5-17.5c2.8-12.9,5.8-25.8,8.6-38.7c0.4-1.9,1.4-4.4-0.5-5.9c-1.7-1.4-3.8,0-5.6,0.7
		s-3.5,1.5-5.2,2.3c-3.7,1.8-7.1,1.2-10.4-1.1c-5.5-3.9-9.9-8.9-14.6-13.6c-4.3-4.3-8.7-8.4-12.4-13.2c-2.9-3.7-3.4-7.4-1.3-11.6
		c1-2,2-4,2.8-6.1c1.5-4.1,0.3-5.7-4-4.9c-4.1,0.7-8.1,1.7-12.2,2.6c-14.1,3.1-28.1,6.3-42.2,9.4c-1.8,0.4-3.6,0.5-5.4,0.3
		s-2.3-1.1-2-2.9c0.9-4.6,2.6-8.8,5.1-12.6c11.7-17.5,24-34.5,39.6-48.8c8.8-8.1,17.8-16.2,28-22.6c3.9-2.5,8.2-3.5,12.9-2.8
		c2.7,0.4,5.5,0.6,8.3,0.7c2.7,0.2,4.8-1,6.3-3.3c3.6-5.8,7.2-11.6,11.2-17.1c8.2-11.4,17.6-21.5,28.5-30.4
		c24.6-20.1,52.5-33.8,82.6-43.2c23.6-7.4,47.8-10.9,72.4-12.7c1.8-0.1,2.2,0.4,1.8,2C397.6,109.8,397.6,111,397.6,112.1z
		 M317.7,211.1c13.2,0.2,24.4-10.7,24.5-24c0.1-13.6-10.5-24.7-23.9-25c-13.8-0.3-24.9,10.5-25.1,24.3
		C293.1,199.9,303.9,210.8,317.7,211.1z"/>
	<path class="st0" d="M180,343.5c3.3,2.7,4,6.2,4.1,9.6c0.5,11.6-6.5,26.3-23.1,28c-11.1,1.1-22.2,2.1-33.3,2.6
		c-4.6,0.2-6.7-2.1-6.6-6.6c0-1.4,0.1-2.8,0.2-4.1c0.7-10.2,1.2-20.4,2.6-30.5c2.1-14.9,18.1-25.2,32.4-20.9
		c0.6,0.2,1.2,0.3,1.7,0.6c1.1,0.5,2.6,1.1,2.7,2.2c0.1,1.3-1.7,1-2.6,1.4c-7.2,3.3-11.6,9.2-14.7,16.1c-2.9,6.5-3.7,13.4-3.5,20.5
		c0.1,1.7,0.6,2.4,2.4,2.4c12,0.5,22.8-2.4,31.6-10.9C176.9,351.1,178.9,347.8,180,343.5z"/>
</g>
</svg>
