<?xml version="1.0" encoding="utf-8"?>
<!-- Generator: Adobe Illustrator 27.4.0, SVG Export Plug-In . SVG Version: 6.00 Build 0)  -->
<svg version="1.1" id="Layer_1" xmlns="http://www.w3.org/2000/svg" xmlns:xlink="http://www.w3.org/1999/xlink" x="0px" y="0px"
	 viewBox="0 0 60 50.2" style="enable-background:new 0 0 60 50.2;" xml:space="preserve">
<style type="text/css">
	.st0{fill:#FF6666;}
</style>
<g id="Development">
	<circle class="st0" cx="5.2" cy="5.5" r="1.1"/>
	<circle class="st0" cx="12.6" cy="5.5" r="1.1"/>
	<circle class="st0" cx="9" cy="5.5" r="1.1"/>
	<path class="st0" d="M17.1,21.7l3.3-3.3c0.4-0.4,0.4-1.1,0-1.6c-0.4-0.4-1.1-0.4-1.6,0l-4.1,4.1c-0.4,0.4-0.4,1.1,0,1.6l4.1,4.1
		c0.4,0.4,1.1,0.4,1.6,0l0,0c0.4-0.4,0.4-1.1,0-1.6L17.1,21.7z"/>
	<path class="st0" d="M32.9,26.6c0.4,0.4,1.1,0.4,1.6,0l4.1-4.1c0.4-0.4,0.4-1.1,0-1.6l-4.1-4.1c-0.4-0.4-1.1-0.4-1.6,0
		s-0.4,1.1,0,1.6l3.3,3.3l-3.3,3.3C32.5,25.5,32.5,26.2,32.9,26.6z"/>
	<path class="st0" d="M29.3,17.1c-0.6-0.3-1.2-0.1-1.6,0.4l0,0l-4.1,7.2c-0.3,0.6-0.2,1.2,0.3,1.6c0.6,0.3,1.2,0.2,1.6-0.3
		c0,0,0,0,0-0.1l4.1-7.2C30.1,18.2,29.8,17.5,29.3,17.1C29.3,17.2,29.3,17.2,29.3,17.1z"/>
	<path class="st0" d="M56.9,32.5c-0.1,0-0.2-0.1-0.3-0.2c-0.4-1.1-1.1-2.2-1.9-3.2c-0.1-0.1-0.1-0.2,0-0.3c0.7-1.2,0.3-2.8-0.9-3.4
		l-0.9-0.6V4.4c0-1.9-1.4-3.3-3.3-3.3H3.8c-1.9,0-3.3,1.4-3.3,3.3v28.1C0.4,33.9,1.5,35,3,35h15.2l-1.1,4.1h-1.4
		c-2.2,0-4.1,1.6-4.7,3.7H8.2c-0.7,0-1.1,0.4-1.1,1.1S7.5,45,8.2,45h28.3c0,0.2,0,0.6,0.1,0.8c0.2,0.7,0.6,1.2,1.2,1.6l2.3,1.3
		c1.2,0.7,2.8,0.3,3.4-0.9l0,0c0.1-0.1,0.2-0.2,0.3-0.1c1.2,0.2,2.4,0.2,3.7,0c0.1,0,0.2,0,0.3,0.2c0.4,0.8,1.3,1.2,2.2,1.2
		c0.4,0,0.9-0.1,1.3-0.3l2.3-1.3c0.6-0.3,1-0.9,1.2-1.6c0.2-0.7,0.1-1.3-0.2-1.9c-0.1-0.1-0.1-0.2,0-0.3c0.8-1,1.4-2,1.9-3.2
		c0-0.1,0.1-0.2,0.3-0.2c1.4,0,2.6-1.1,2.6-2.6V35C59.4,33.6,58.2,32.5,56.9,32.5z M2.6,4.4c0-0.7,0.4-1.1,1.1-1.1h45.8
		c0.7,0,1.1,0.4,1.1,1.1v3.3H2.6V4.4z M3,32.9c-0.2,0-0.3-0.1-0.3-0.3V10h48.1v13.7c-1.1-0.3-2.2,0.1-2.8,1.1l0,0
		c-0.1,0.1-0.2,0.2-0.3,0.1c-1.2-0.2-2.4-0.2-3.7,0c-0.1,0-0.2,0-0.3-0.1l0,0c-0.7-1.2-2.2-1.7-3.4-0.9l0,0l-2.3,1.3
		c-0.6,0.3-1,0.9-1.2,1.6c-0.2,0.7-0.1,1.3,0.2,2c0.1,0.1,0.1,0.2,0,0.3c-0.8,1-1.4,2-1.9,3.2c0,0.1-0.1,0.2-0.3,0.2
		c-0.6,0-1.1,0.2-1.6,0.6L3,32.9z M32.6,39.3H19.3l1.1-4.1h11.7v2.6C32.1,38.3,32.3,38.8,32.6,39.3z M15.6,41.5h19.8
		c0.2,0.6,0.6,1,0.9,1.4h-23C13.7,42,14.6,41.5,15.6,41.5L15.6,41.5z M57.2,37.7c0,0.2-0.1,0.3-0.3,0.3c-1.1,0-2,0.7-2.4,1.7
		c-0.3,0.9-0.9,1.8-1.4,2.6c-0.7,0.8-0.8,2-0.2,2.9c0,0.1,0,0.2,0,0.2c0,0.1-0.1,0.1-0.1,0.2l-2.4,1.3c-0.1,0.1-0.3,0-0.4-0.1l0,0
		c-0.6-0.9-1.6-1.4-2.7-1.2c-1,0.1-2,0.1-3,0c-1-0.2-2.1,0.3-2.7,1.2c0,0.1-0.1,0.2-0.3,0.1l-2.3-1.3c-0.1,0-0.1-0.1-0.1-0.2
		s0-0.2,0-0.2c0.6-0.9,0.4-2.1-0.2-2.9c-0.7-0.8-1.1-1.7-1.4-2.6c-0.3-1-1.3-1.6-2.3-1.6c-0.2,0-0.3-0.1-0.3-0.3v-2.7
		c0-0.2,0.1-0.3,0.3-0.3l0,0c1.1,0,2-0.7,2.3-1.7c0.3-0.9,0.9-1.8,1.4-2.6c0.7-0.8,0.8-2,0.2-2.9c0-0.1,0-0.2,0-0.2
		c0-0.1,0.1-0.1,0.1-0.2l2.3-1.3c0,0,0.1,0,0.2,0c0.1,0,0.2,0.1,0.3,0.1l0,0c0.6,0.9,1.6,1.4,2.7,1.2c1-0.1,2-0.1,3,0
		c1.1,0.1,2.1-0.3,2.7-1.3l0,0c0.1-0.1,0.3-0.2,0.4-0.1l0,0l2.3,1.3c0.1,0,0.1,0.1,0.1,0.2c0,0.1,0,0.2,0,0.2
		c-0.6,0.9-0.4,2.1,0.2,2.9c0.7,0.8,1.1,1.7,1.4,2.6c0.3,1,1.3,1.7,2.3,1.7c0.2,0,0.3,0.1,0.3,0.3l0,0V37.7z"/>
	<path class="st0" d="M45.7,31.3c-2.8,0-5,2.2-5,5s2.2,5,5,5s5-2.2,5-5S48.5,31.3,45.7,31.3L45.7,31.3z M45.7,39.1
		c-1.6,0-2.8-1.2-2.8-2.8s1.2-2.8,2.8-2.8s2.8,1.2,2.8,2.8C48.6,37.9,47.3,39.1,45.7,39.1L45.7,39.1z"/>
</g>
</svg>
