<?xml version="1.0" encoding="utf-8"?>
<!-- Generator: Adobe Illustrator 27.4.0, SVG Export Plug-In . SVG Version: 6.00 Build 0)  -->
<svg version="1.1" id="Layer_1" xmlns="http://www.w3.org/2000/svg" xmlns:xlink="http://www.w3.org/1999/xlink" x="0px" y="0px"
	 viewBox="0 0 48 48" style="enable-background:new 0 0 48 48;" xml:space="preserve">
<style type="text/css">
	.st0{fill:#4CAF50;}
	.st1{fill:#1E88E5;}
	.st2{fill:#E53935;}
	.st3{fill:#C62828;}
	.st4{fill:#FBC02D;}
</style>
<path class="st0" d="M45,16.2l-10,7.5V40h7c1.7,0,3-1.3,3-3V16.2z"/>
<path class="st1" d="M3,16.2l10,7.5V40H6c-1.7,0-3-1.3-3-3V16.2z"/>
<polygon class="st2" points="35,11.2 24,19.5 13,11.2 13,23.7 24,32 35,23.7 "/>
<path class="st3" d="M3,12.3v3.9l10,7.5V11.2L9.9,8.9C9.1,8.3,8.2,8,7.3,8l0,0C4.9,8,3,9.9,3,12.3z"/>
<path class="st4" d="M45,12.3v3.9l-10,7.5V11.2l3.1-2.3C38.9,8.3,39.8,8,40.7,8l0,0C43.1,8,45,9.9,45,12.3z"/>
</svg>
