<?xml version="1.0" encoding="utf-8"?>
<!-- Generator: Adobe Illustrator 27.4.0, SVG Export Plug-In . SVG Version: 6.00 Build 0)  -->
<svg version="1.1" id="Layer_1" xmlns="http://www.w3.org/2000/svg" xmlns:xlink="http://www.w3.org/1999/xlink" x="0px" y="0px"
	 viewBox="0 0 512 512" style="enable-background:new 0 0 512 512;" xml:space="preserve">
<style type="text/css">
	.st0{fill:#FF6666;}
</style>
<g>
	<path class="st0" d="M355.6,110c24.4-3.7,49-7.2,74.2-11c-4.8,21.5-9.5,42.8-14.4,64.7c-4.5-3.9-8.9-7.2-12.8-11.2
		c-2.7-2.6-4.4-2.2-6.9,0c-15.9,13.6-32,27-48,40.5c-28.6,24-57.2,48.1-85.7,72.2c-2.4,2.1-3.6,1.7-5.7-0.1
		c-12-9.9-24.2-19.7-36-29.6c-2.3-2-3.6-2.1-6,0c-26.2,22.8-52.6,45.3-78.7,68c-2.4,2.1-3.6,2.4-6.3,0.1
		c-7.6-6.8-15.5-13.2-23.4-19.8c-1.7-1.5-1.7-2.2,0-3.7c36.7-31.4,73.4-62.9,110-94.5c2.5-2.2,3.7-0.8,5.3,0.5
		c11.9,9.7,23.8,19.2,35.5,29c1.9,1.6,2.8,1.5,4.7,0c32.6-27.2,65.4-54.2,98.1-81.3c2.8-2.4,5.6-4.8,8.7-7c2.8-2,2.3-3.2-0.1-5.1
		c-4.7-3.6-8.9-7.4-13.5-10.9C355,110.7,355.3,110.4,355.6,110z"/>
	<rect x="99.8" y="324.9" class="st0" width="91.4" height="76.7"/>
	<rect x="218.2" y="288.8" class="st0" width="91.4" height="112.9"/>
	<rect x="336.2" y="239.7" class="st0" width="91.4" height="162.1"/>
</g>
</svg>
