<?xml version="1.0" encoding="utf-8"?>
<!-- Generator: Adobe Illustrator 27.4.0, SVG Export Plug-In . SVG Version: 6.00 Build 0)  -->
<svg version="1.1" id="Layer_1" xmlns="http://www.w3.org/2000/svg" xmlns:xlink="http://www.w3.org/1999/xlink" x="0px" y="0px"
	 viewBox="0 0 512 512" style="enable-background:new 0 0 512 512;" xml:space="preserve">
<style type="text/css">
	.st0{fill:#FF6666;}
</style>
<g>
	<path class="st0" d="M260.6,378.7c-54.7,0-109.5,0-164.2,0c-7.5,0-13.9-7.8-13.9-17.3c0.1-82.9,0.3-165.8,0.5-248.6
		c0-6.3,0.6-12.8,1-19.1c0.5-7.7,4.1-11.4,9.9-11.6c11.2-0.4,22.5-1,33.7-1.1c97.2-0.3,194.4-1.4,291.7,0.6
		c17.3,0.4,18.6,2.1,19,24.3c1.3,72,0.3,144.2,0.6,216.3c0.1,13,0,26,0,39c0,9.7-6.1,17.4-13.7,17.4
		C370.5,378.7,315.5,378.7,260.6,378.7z M260.3,323.7c50.5,0,100.9,0,151.4,0.1c4,0,5.7-0.8,5.6-6.6c-0.2-67.5-0.2-134.8,0-202.3
		c0-5.7-1.4-6.8-5.6-6.8c-100.7,0.1-201.4,0.1-302.2,0c-4.6,0-5.3,1.9-5.3,7.1c0.1,67.2,0.2,134.3,0,201.5c0,6.1,1.5,7.1,5.9,7.1
		C160.2,323.7,210.3,323.7,260.3,323.7z"/>
	<path class="st0" d="M260.8,432c-16.1-0.1-32.2,0.4-48.3-1.1c-1.7-0.1-4.3,1.1-5.1-1.9c-0.6-2.3,1.4-3.9,2.7-5.2
		c8.2-8.1,12.4-18.4,12.5-31.6c0-4,1.4-5.8,5-5.8c22.1,0.3,44.2,0.3,66.4,0c3.5,0,5,1.5,5,5.8c0,13.1,4.3,23.6,12.5,31.6
		c1.3,1.3,3.2,2.9,2.6,5.3c-0.6,2.7-3,1.6-4.6,1.8C293.4,432.4,277.1,431.9,260.8,432z"/>
	<path class="st0" d="M378.4,140.7c0.1,2.5-1.4,3.4-2.6,4.5c-24.2,21.2-48.9,41.7-74.1,61.4c-2.8,2.2-4.7,1.5-7.2-0.4
		c-16.3-12.3-32.7-24.5-48.9-36.8c-2.8-2.1-4.8-2.1-7.8-0.4c-27.9,16.9-55.9,33.5-83.8,50.4c-3.7,2.2-6.2,2.3-7.6-2.7
		c-1.2-4.3-6.2-8.7,0.8-12.8c30.7-18.3,61.4-36.8,92-55.4c2.9-1.8,4.9-1.2,7.4,0.7c16.1,12.2,32.4,24.1,48.4,36.4
		c2.9,2.2,4.8,2.2,7.6-0.2c20.7-17.7,41.5-35.1,62.4-52.5c1.9-1.5,3.8-5,6.5-2.8C374.6,133,376.8,136.9,378.4,140.7z"/>
	<rect x="163.9" y="230" class="st0" width="28.7" height="64.2"/>
	<rect x="223.9" y="200.6" class="st0" width="28.7" height="93.5"/>
	<rect x="280.2" y="229.7" class="st0" width="30.6" height="64.5"/>
	<rect x="335" y="200.6" class="st0" width="28.6" height="93.5"/>
</g>
</svg>
