<?xml version="1.0" encoding="utf-8"?>
<!-- Generator: Adobe Illustrator 27.4.0, SVG Export Plug-In . SVG Version: 6.00 Build 0)  -->
<svg version="1.1"
	 id="svg2793" xmlns:svg="http://www.w3.org/2000/svg" xmlns:serif="http://www.serif.com/" xmlns:rdf="http://www.w3.org/1999/02/22-rdf-syntax-ns#" xmlns:dc="http://purl.org/dc/elements/1.1/" xmlns:cc="http://creativecommons.org/ns#"
	 xmlns="http://www.w3.org/2000/svg" xmlns:xlink="http://www.w3.org/1999/xlink" x="0px" y="0px" viewBox="0 0 1366 768"
	 style="enable-background:new 0 0 1366 768;" xml:space="preserve">
<style type="text/css">
	.st0{fill:#FF6666;}
</style>
<g id="_27-Layout" transform="translate(-1024,-5120)">
	<g id="g2152" transform="translate(0,1024.05)">
		<path id="path2150" class="st0" d="M1648.6,4393.2H2046v425.8h-397.4V4393.2z M1368,4393.2h235.6v425.8H1368V4393.2z M2046,4348.2
			h-678v-207.2h678V4348.2z M2068.5,4095.9h-723c-12.4,0-22.5,10.1-22.5,22.5v723c0,12.4,10.1,22.5,22.5,22.5h723
			c12.4,0,22.5-10.1,22.5-22.5v-723C2091,4106,2080.9,4096,2068.5,4095.9"/>
	</g>
	<g id="g2156" transform="translate(1394.3,5413.62)">
		<path id="path2154" class="st0" d="M484.2,320.6c-47.9,0-86.9-39-86.9-86.9c0-40.1,27.3-74,64.4-83.9v83.9
			c0,12.4,10.1,22.5,22.5,22.5H568C558.1,293.2,524.3,320.6,484.2,320.6 M568,211.2h-61.4v-61.4C536.5,157.8,560,181.3,568,211.2
			 M484.2,101.8c-72.7,0-131.9,59.2-131.9,131.9c0,72.7,59.2,131.9,131.9,131.9S616,306.4,616,233.7
			C616,161,556.9,101.8,484.2,101.8"/>
	</g>
	<g id="g2160" transform="translate(1302.9,5235.33)">
		<path id="path2158" class="st0" d="M438.5,8.9c13.4,0,24.4,10.9,24.4,24.4s-10.9,24.4-24.4,24.4s-24.4-10.9-24.4-24.4
			S425,8.9,438.5,8.9 M438.5,102.7c38.3,0,69.4-31.1,69.4-69.4s-31.1-69.4-69.4-69.4S369.1-5,369.1,33.3S400.2,102.7,438.5,102.7"/>
	</g>
	<g id="g2164" transform="translate(1425.38,5235.33)">
		<path id="path2162" class="st0" d="M499.7,8.9c13.4,0,24.4,10.9,24.4,24.4s-10.9,24.4-24.4,24.4c-13.4,0-24.4-10.9-24.4-24.4
			S486.2,8.9,499.7,8.9 M499.7,102.7c38.3,0,69.4-31.1,69.4-69.4S538-36.1,499.7-36.1c-38.3,0-69.4,31.1-69.4,69.4
			S461.4,102.7,499.7,102.7"/>
	</g>
	<g id="g2168" transform="translate(1103.34,5400.96)">
		<path id="path2166" class="st0" d="M338.7,185.5h87.6c12.4,0,22.5-10.1,22.5-22.5s-10.1-22.5-22.5-22.5h-87.6
			c-12.4,0-22.5,10.1-22.5,22.5S326.2,185.5,338.7,185.5"/>
	</g>
	<g id="g2172" transform="translate(1161.75,5486.53)">
		<path id="path2170" class="st0" d="M367.9,138.3h-87.6c-12.4,0-22.5,10.1-22.5,22.5s10.1,22.5,22.5,22.5h87.6
			c12.4,0,22.5-10.1,22.5-22.5S380.3,138.3,367.9,138.3"/>
	</g>
	<g id="g2176" transform="translate(1161.75,5542.11)">
		<path id="path2174" class="st0" d="M367.9,166.1h-87.6c-12.4,0-22.5,10.1-22.5,22.5s10.1,22.5,22.5,22.5h87.6
			c12.4,0,22.5-10.1,22.5-22.5S380.3,166.1,367.9,166.1"/>
	</g>
</g>
</svg>
