<?xml version="1.0" encoding="utf-8"?>
<!-- Generator: Adobe Illustrator 27.4.0, SVG Export Plug-In . SVG Version: 6.00 Build 0)  -->
<svg version="1.1" id="Layer_1" xmlns="http://www.w3.org/2000/svg" xmlns:xlink="http://www.w3.org/1999/xlink" x="0px" y="0px"
	 viewBox="0 0 480 480" style="enable-background:new 0 0 480 480;" xml:space="preserve">
<style type="text/css">
	.st0{opacity:0;fill:#BBBBBB;}
	.st1{fill:#59CEA7;}
	.st2{fill:#CBE2EF;}
	.st3{fill:none;}
	.st4{opacity:0;fill:#DDDDDD;}
	.st5{fill:#4CB08E;}
	.st6{fill:#FF6666;}
</style>
<path id="Path_25" class="st0" d="M40,128h352c17.7,0,32,14.3,32,32v280c0,17.7-14.3,32-32,32H40c-17.7,0-32-14.3-32-32V160
	C8,142.3,22.3,128,40,128z"/>
<path id="Path_26" class="st0" d="M419.3,59.3l-46.6-46.6c-3-3-7.1-4.7-11.3-4.7H112c-8.8,0-16,7.2-16,16v184h328V70.6
	C424,66.4,422.3,62.3,419.3,59.3L419.3,59.3z"/>
<path id="Path_27" class="st0" d="M440,200H104c-17.7,0-32,14.3-32,32v208c0,17.7-14.3,32-32,32h400c17.7,0,32-14.3,32-32V232
	C472,214.3,457.7,200,440,200z"/>
<rect id="Rectangle_3" x="120" y="80" class="st1" width="232" height="16"/>
<rect id="Rectangle_4" x="120" y="120" class="st1" width="280" height="16"/>
<rect id="Rectangle_5" x="120" y="160" class="st1" width="280" height="16"/>
<rect id="Rectangle_6" x="120" y="40" class="st1" width="216" height="16"/>
<path id="Path_28" class="st2" d="M225.1,291.9l-15.6,26c-7.7-34.5,14.1-68.7,48.6-76.4c16.5-3.7,33.7-0.7,48,8.3l8.5-13.5
	c-37.4-23.6-86.8-12.4-110.3,25c-10.6,16.8-14.6,36.9-11.1,56.5l-21.1-12.7l-8.2,13.7l46.9,28.1l28.1-46.9L225.1,291.9z"/>
<path id="Path_29" class="st2" d="M380.1,289.1L333.3,261l-28.1,46.9l13.7,8.2l15.6-26c7.7,34.5-14.1,68.7-48.6,76.4
	c-16.6,3.7-34,0.6-48.3-8.5l-8.6,13.5c37.3,23.8,86.8,12.8,110.6-24.5c10.7-16.8,14.8-37,11.4-56.7l21.1,12.6L380.1,289.1z"/>
<path id="Path_30" class="st3" d="M419.3,59.3l-46.6-46.6c-3-3-7.1-4.7-11.3-4.7H360v40c0,8.8,7.2,16,16,16h46.5
	C421.8,62.3,420.7,60.7,419.3,59.3z"/>
<path id="Path_31" class="st4" d="M415.7,64C391,144.8,316.5,200,232,200h192V70.6c0-2.3-0.5-4.5-1.5-6.6H415.7z"/>
<path id="Path_32" class="st4" d="M200,472.2h240c17.7,0,32-14.3,32-32v-208c0-2.8-0.4-5.5-1.1-8.2
	C458.9,363.1,342.2,472.2,200,472.2z"/>
<path id="Path_33" class="st5" d="M400,136v-16h-12.1c-4,5.6-8.3,10.9-12.8,16H400z"/>
<path id="Path_34" class="st5" d="M325,176h75v-16h-50.7C341.6,165.9,333.5,171.3,325,176z"/>
<path id="Path_35" class="st1" d="M300.7,440h22.6l32-32h-22.6L300.7,440z"/>
<path id="Path_36" class="st1" d="M252.7,440h22.6l32-32h-22.6L252.7,440z"/>
<path id="Path_37" class="st1" d="M204.7,440h22.6l32-32h-22.6L204.7,440z"/>
<path id="Path_38" class="st1" d="M157,439.7c1,0.2,2,0.3,3,0.3h19.3l32-32h-22.6L157,439.7z"/>
<path id="Path_40" class="st6" d="M440,192h-8V70.6c0-6.4-2.5-12.5-7-17L378.3,7c-4.5-4.5-10.6-7-17-7H112C98.8,0,88,10.8,88,24v96
	H40c-22.1,0-40,17.9-40,40v280c0,22.1,17.9,40,40,40h400c22.1,0,40-17.9,40-40V232C480,209.9,462.1,192,440,192z M368,19.3L404.7,56
	H376c-4.4,0-8-3.6-8-8V19.3z M104,24c0-4.4,3.6-8,8-8h240v32c0,13.2,10.8,24,24,24h40v120H104V24z M64,440c0,13.3-10.7,24-24,24
	s-24-10.7-24-24V160c0-13.2,10.8-24,24-24h48v59.4c-14.6,6.4-24,20.8-24,36.6V440z M464,440c0,13.2-10.8,24-24,24H72
	c5.2-6.9,8-15.3,8-24V232c0-13.2,10.8-24,24-24h336c13.2,0,24,10.8,24,24V440z"/>
<rect id="Rectangle_8" x="120" y="80" class="st6" width="232" height="16"/>
<rect id="Rectangle_9" x="120" y="120" class="st6" width="280" height="16"/>
<path id="Path_45" class="st6" d="M120,160h280v16H120V160z"/>
<path id="Path_44" class="st6" d="M120,40h216v16H120V40z"/>
<path id="Path_41" class="st6" d="M238.9,300.1l-13.7-8.2l-15.6,26c-7.7-34.5,14.1-68.7,48.6-76.4c16.5-3.7,33.7-0.7,48,8.3
	l8.5-13.5c-37.4-23.6-86.8-12.4-110.3,25c-10.6,16.8-14.6,37-11.1,56.5l-21.1-12.7l-8.2,13.7l46.9,28.1L238.9,300.1z"/>
<path id="Path_42" class="st6" d="M318.9,316.1l15.6-26c7.7,34.5-14.1,68.7-48.6,76.4c-16.6,3.7-34,0.6-48.3-8.5l-8.6,13.5
	c37.3,23.8,86.8,12.8,110.6-24.5c10.7-16.8,14.8-37,11.4-56.7l21.1,12.6l8.2-13.7L333.3,261l-28.1,46.9L318.9,316.1z"/>
<path id="Path_43" class="st6" d="M384,400H160c-13.3,0-24,10.7-24,24s10.7,24,24,24h224c13.3,0,24-10.7,24-24S397.3,400,384,400z
	 M164.7,432H160c-4.4,0-8-3.6-8-8s3.6-8,8-8h20.7L164.7,432z M212.7,432h-25.4l16-16h25.4L212.7,432z M260.7,432h-25.4l16-16h25.4
	L260.7,432z M308.7,432h-25.4l16-16h25.4L308.7,432z M384,432h-52.7l16-16H384c4.4,0,8,3.6,8,8S388.4,432,384,432z"/>
</svg>
