<?xml version="1.0" encoding="utf-8"?>
<!-- Generator: Adobe Illustrator 27.4.0, SVG Export Plug-In . SVG Version: 6.00 Build 0)  -->
<svg version="1.1" id="Layer_1" xmlns="http://www.w3.org/2000/svg" xmlns:xlink="http://www.w3.org/1999/xlink" x="0px" y="0px"
	 viewBox="0 0 246.7 246.7" style="enable-background:new 0 0 246.7 246.7;" xml:space="preserve">
<style type="text/css">
	.st0{fill:none;}
	.st1{fill:none;stroke:#FF6666;stroke-width:6;}
	.st2{fill:#FF6666;}
	.st3{fill:none;stroke:#FF6666;stroke-width:7;}
</style>
<g id="Group_1" transform="translate(-67.39 -95.106)">
	<g id="Rectangle_1" transform="translate(247.602 204.276) rotate(45)">
		
			<rect x="10.7" y="4.3" transform="matrix(2.535182e-06 1 -1 2.535182e-06 97.2459 3.9297)" class="st0" width="72" height="92.6"/>
		
			<rect x="13.7" y="7.3" transform="matrix(2.535182e-06 1 -1 2.535182e-06 97.2459 3.9297)" class="st1" width="66" height="86.6"/>
	</g>
	<g id="Rectangle_2" transform="translate(138.431 95.106) rotate(45)">
		
			<rect x="11.5" y="3.5" transform="matrix(2.535182e-06 1 -1 2.535182e-06 98.0694 3.1062)" class="st0" width="72" height="94.3"/>
		
			<rect x="14.5" y="6.5" transform="matrix(2.535182e-06 1 -1 2.535182e-06 98.0694 3.1062)" class="st1" width="66" height="88.3"/>
	</g>
	<g id="Path_1" transform="translate(314.087 146.017) rotate(135)">
		<path class="st0" d="M14.6-0.4h210.5l66.3,36.8l-64.2,35.2H14.6V-0.4z"/>
		<path class="st2" d="M20.6,5.6v60h205.2L279,36.5L223.6,5.6H20.6 M14.6-0.4h210.5l66.3,36.8l-64.2,35.2H14.6V-0.4z"/>
	</g>
	<g id="Path_2" transform="translate(269.833 164.5) rotate(135)">
		<path class="st0" d="M14.6-0.4l157.7,1.9l16.4,16.4L172.8,35L14.6,35.7V-0.4z"/>
		<path class="st2" d="M20.6,5.7v23.9l149.6-0.6l10.2-11L169.8,7.5L20.6,5.7 M14.6-0.4l157.7,1.9l16.4,16.4L172.8,35L14.6,35.7V-0.4
			z"/>
	</g>
	<line id="Line_1" class="st3" x1="128.4" y1="144.1" x2="98.4" y2="174.1"/>
	<line id="Line_4" class="st3" x1="263.4" y1="281.1" x2="233.4" y2="311.1"/>
	<line id="Line_2" class="st3" x1="135.4" y1="178.1" x2="118.4" y2="195.1"/>
	<line id="Line_7" class="st3" x1="128.4" y1="263.1" x2="106.4" y2="258.1"/>
	<line id="Line_8" class="st3" x1="152.4" y1="303.1" x2="146.4" y2="281.1"/>
	<line id="Line_3" class="st3" x1="230.4" y1="273.1" x2="213.4" y2="290.1"/>
	<line id="Line_5" class="st3" x1="223.4" y1="141.1" x2="269.4" y2="187.1"/>
	<line id="Line_6" class="st3" x1="223.4" y1="141.1" x2="269.4" y2="187.1"/>
</g>
</svg>
