<?xml version="1.0" encoding="utf-8"?>
<!-- Generator: Adobe Illustrator 27.4.0, SVG Export Plug-In . SVG Version: 6.00 Build 0)  -->
<svg version="1.1" id="Layer_1" xmlns="http://www.w3.org/2000/svg" xmlns:xlink="http://www.w3.org/1999/xlink" x="0px" y="0px"
	 viewBox="0 0 942 942" style="enable-background:new 0 0 942 942;" xml:space="preserve">
<style type="text/css">
	.st0{fill:#FF6666;}
</style>
<g transform="translate(0.000000,627.000000) scale(0.100000,-0.100000)">
	<path class="st0" d="M180.1,6118.8c-24.9-15-52.1-40-61.2-55c-9.1-15-18.1-1815.7-18.1-4004.1c0-2185.9,9.1-3989.1,18.1-4004.1
		c49.8-85,90.6-85,2901.7-85h2788.5v-457.7c0-412.7,4.5-465.2,40.8-500.2c38.5-37.5,133.6-42.5,892.5-42.5
		c833.6,0,849.4,0,892.5,52.5c38.5,47.5,43,102.5,49.8,500.2l6.8,447.7H8439c740.7,0,817.7,7.5,863,85c22.7,35,22.7,7973.2,0,8008.2
		c-9.1,15-38.5,40-65.7,57.5C9166.1,6161.3,245.8,6158.8,180.1,6118.8z M9025.7,5286v-512.7H4710.5H395.3V5286v512.7h4315.2h4315.2
		V5286z M4246.1,2910V1371.9H2320.7H395.3V2910v1538.1h1925.4h1925.4V2910z M8685.9,4413.1c-18.1-17.5-226.5-167.6-464.4-332.6
		C7639.4,3675.3,5290.4,2032.2,4683.3,1607l-120.1-85V2985v1463.1h2077.2C8407.3,4448.1,8713.1,4443.1,8685.9,4413.1z
		 M9025.7,2797.5V1371.9h-881.2h-881.2L7066.3,1722c-188,340.1-194.8,355.1-169.9,437.7c31.7,110,158.6,230.1,262.8,252.6
		c113.3,22.5,321.7-40,627.5-187.6c450.8-222.6,718.1-235.1,915.1-45c70.2,67.5,183.5,282.6,160.8,305.1
		c-2.3,2.5-68,17.5-142.7,32.5c-133.6,25-135.9,25-197.1-47.5c-52.1-60-79.3-72.5-172.2-72.5c-120.1,0-292.2,57.5-468.9,155.1
		c-360.2,202.6-736.2,260.1-946.9,147.6c-181.2-97.5-355.6-372.7-355.6-560.2c0-25-88.3-210.1-197.1-407.7l-197.1-360.1h-622.9
		c-353.4,0-613.9,10-600.3,22.5c18.1,20,661.4,470.2,2149.7,1508.1c287.7,200.1,826.8,580.2,1200.6,842.8
		c373.8,260.1,686.4,475.2,697.7,477.7C9018.9,4223,9025.7,3582.8,9025.7,2797.5z M7335.8,599.1L7730-111.2l-99.7-110
		c-58.9-62.5-133.6-182.6-174.4-277.6c-63.4-150.1-72.5-195.1-79.3-447.7l-9.1-282.6h-629.7h-629.7l-6.8,282.6
		c-9.1,257.6-15.9,295.1-83.8,447.7c-45.3,105-115.5,207.6-183.5,275.1l-111,110l396.4,722.8c215.2,400.2,403.2,735.3,414.5,747.8
		c15.9,17.5,22.7-145.1,22.7-440.2V449l-63.4-40c-81.5-55-160.8-182.6-190.3-307.6c-29.4-130.1,9.1-280.1,99.7-395.2
		c95.1-117.5,185.7-165.1,314.9-165.1c135.9,0,256,65,346.6,190.1c63.4,85,70.2,110,70.2,275.1c0,160.1-6.8,192.6-63.4,272.6
		c-34,50-92.9,110-131.4,130.1l-65.7,40l2.3,480.2c0,420.2,4.5,472.7,31.7,430.2C6925.8,1331.9,7118.4,989.2,7335.8,599.1z
		 M5985.8,1024.2c-2.3-12.5-43-90-86.1-175.1l-79.3-150.1L4749,696.6H3677.5l-54.4-62.5l-56.6-60v-877.9
		c0-825.3,6.8-932.9,61.2-1000.4c6.8-7.5,496.1-17.5,1089.6-25l1080.5-12.5l6.8-167.6l6.8-170.1H3102.2H395.3v1363.1v1363.1h2799.8
		C4844.1,1046.8,5990.3,1036.7,5985.8,1024.2z M9025.7-316.3v-1363.1h-666h-666l-9.1,165.1c-2.3,90-2.3,170.1,2.3,175.1
		c4.5,5,222,10,480.2,10c459.8,0,471.2,0,505.1,55c52.1,80,54.4,1833.2,4.5,1910.8c-29.4,45-70.2,47.5-536.9,60l-507.4,12.5
		l-83.8,150.1c-45.3,82.5-83.8,157.6-83.8,170.1c-2.3,10,348.8,17.5,779.2,17.5h781.5V-316.3z M5612,354
		c6.8-12.5-49.8-125.1-122.3-252.6c-183.5-320.1-181.2-335.1,58.9-510.2c129.1-95,228.8-282.6,251.4-475.2l15.9-120h-967.2h-965
		v687.8v687.8h858.5C5215.6,371.5,5607.5,364,5612,354z M8409.5-321.3l4.5-682.8h-376h-378.3l15.9,132.6
		c24.9,212.6,115.5,382.7,274.1,505.2c185.7,142.6,185.7,182.6,22.7,470.2c-68,122.5-124.6,232.6-124.6,245.1
		c0,15,108.7,22.5,278.6,17.5l276.4-7.5L8409.5-321.3z M6801.2,106.4c58.9-45,63.4-125.1,11.3-190.1c-45.3-55-115.5-57.5-169.9-2.5
		c-54.4,52.5-52.1,120,4.5,182.6C6701.6,156.4,6733.3,158.9,6801.2,106.4z M7372.1-2142v-562.7l-627.5,5l-629.7,7.5l-4.5,557.7
		l-4.5,555.2h634.3h632V-2142z"/>
	<path class="st0" d="M712.4,5286v-162.6h147.2h147.2V5286v162.6H859.6H712.4V5286z"/>
	<path class="st0" d="M1324,5286v-162.6h158.6h158.6V5286v162.6h-158.6H1324V5286z"/>
	<path class="st0" d="M1935.6,5286v-162.6h158.6h158.6V5286v162.6h-158.6h-158.6V5286z"/>
	<path class="st0" d="M712.4,3922.9v-175.1H1324h611.6v175.1V4098H1324H712.4V3922.9z"/>
	<path class="st0" d="M712.4,3247.6v-175.1l1230,5l1227.7,7.5l6.8,170.1l6.8,167.6H1946.9H712.4V3247.6z"/>
	<path class="st0" d="M762.2,2522.4c-47.6-50-49.8-72.5-49.8-462.7s2.3-412.7,49.8-462.7c47.6-47.5,74.8-50,946.9-50h899.3
		l47.6,57.5c47.6,55,49.8,82.5,49.8,457.7c0,387.7-2.3,402.7-52.1,455.2c-52.1,55-58.9,55-946.9,55
		C837,2572.4,809.8,2569.9,762.2,2522.4z M2411.3,2059.7v-162.6h-702.2h-702.2v162.6v162.6h702.2h702.2V2059.7z"/>
	<path class="st0" d="M757.7,646.6c-43-47.5-45.3-82.5-45.3-957.9c0-780.3,4.5-915.4,36.2-962.9l34-55H1990
		c1141.7,0,1209.6,2.5,1243.6,45c34,42.5,38.5,145.1,38.5,975.4v927.9l-49.8,37.5c-45.3,35-199.3,40-1234.5,40
		C832.5,696.6,800.7,694.1,757.7,646.6z M2973.1-321.3l4.5-682.8h-985.4h-985.4v670.3c0,370.2,6.8,680.3,15.9,687.8
		c6.8,10,448.5,15,978.6,12.5l965-7.5L2973.1-321.3z"/>
</g>
</svg>
